<svg width="100" height="78" viewBox="0 0 100 78" fill="none" xmlns="http://www.w3.org/2000/svg">
<path d="M84.7778 7.28606C84.7485 7.23102 84.7001 7.1886 84.6417 7.16682C78.163 4.18892 71.3262 2.06466 64.3023 0.847126C64.2392 0.835541 64.1741 0.844108 64.1161 0.871618C64.0581 0.899127 64.0102 0.944188 63.9792 1.00043C63.0476 2.69413 62.2019 4.43384 61.4453 6.21291C53.8699 5.06118 46.1644 5.06118 38.589 6.21291C37.8293 4.42944 36.9721 2.6893 36.021 1.00043C35.9882 0.945864 35.9401 0.902208 35.8826 0.874936C35.8251 0.847665 35.7609 0.837991 35.6979 0.847126C28.6618 2.05918 21.8131 4.1836 15.3245 7.16682C15.2676 7.19098 15.2199 7.23277 15.1885 7.28606C2.22974 26.6881 -1.32455 45.596 0.41008 64.2826C0.414992 64.3296 0.429626 64.3751 0.453048 64.4162C0.476471 64.4572 0.508171 64.4929 0.54613 64.5211C8.09457 70.1136 16.5362 74.3817 25.5112 77.1434C25.5757 77.1634 25.6449 77.1627 25.7089 77.1413C25.773 77.1199 25.8287 77.079 25.8684 77.0242C27.794 74.3984 29.5004 71.618 30.9702 68.7115C30.9898 68.6715 31.0009 68.6279 31.0029 68.5834C31.0048 68.5389 30.9976 68.4945 30.9816 68.4529C30.9657 68.4113 30.9413 68.3735 30.9101 68.3418C30.8789 68.3101 30.8414 68.2851 30.8001 68.2686C28.1039 67.2337 25.4937 65.9863 22.9943 64.5381C22.9501 64.511 22.9131 64.4737 22.8864 64.4293C22.8596 64.3849 22.8439 64.3347 22.8406 64.2829C22.8372 64.2311 22.8464 64.1793 22.8672 64.1319C22.888 64.0844 22.92 64.0426 22.9603 64.01C23.4875 63.6183 24.0147 63.2094 24.5079 62.8006C24.5514 62.7624 24.6048 62.7372 24.662 62.7282C24.7192 62.7192 24.7778 62.7265 24.831 62.7495C41.1909 70.2275 58.9114 70.2275 75.0843 62.7495C75.1359 62.7242 75.1936 62.714 75.2507 62.7201C75.3078 62.7261 75.3621 62.7481 75.4074 62.7836C75.9006 63.1924 76.4277 63.6183 76.9549 64.01C76.9953 64.0426 77.0272 64.0844 77.048 64.1319C77.0689 64.1793 77.078 64.2311 77.0747 64.2829C77.0713 64.3347 77.0556 64.3849 77.0289 64.4293C77.0021 64.4737 76.9651 64.511 76.9209 64.5381C74.428 65.9938 71.8167 67.236 69.1151 68.2516C69.0738 68.2681 69.0364 68.293 69.0051 68.3247C68.9739 68.3564 68.9496 68.3943 68.9336 68.4358C68.9176 68.4774 68.9104 68.5219 68.9124 68.5664C68.9143 68.6108 68.9255 68.6544 68.945 68.6945C70.4405 71.5865 72.1457 74.3649 74.0469 77.0072C74.0865 77.0619 74.1423 77.1029 74.2063 77.1243C74.2704 77.1456 74.3395 77.1464 74.404 77.1264C83.4049 74.377 91.871 70.1082 99.4371 64.504C99.4759 64.4767 99.5081 64.4412 99.5317 64.4C99.5552 64.3588 99.5693 64.3129 99.5732 64.2656C101.648 42.6832 96.0699 23.9285 84.7778 7.28606ZM33.4191 52.9037C28.4873 52.9037 24.4398 48.3726 24.4398 42.8195C24.4398 37.2663 28.4193 32.7182 33.4191 32.7182C38.4699 32.7182 42.4834 37.2833 42.3984 42.8024C42.3984 48.3726 38.4189 52.9037 33.4191 52.9037ZM66.6492 52.9037C61.7174 52.9037 57.6699 48.3726 57.6699 42.8195C57.6699 37.2663 61.6324 32.7182 66.6492 32.7182C71.7 32.7182 75.7135 37.2833 75.6285 42.8024C75.6285 48.3726 71.683 52.9037 66.6492 52.9037Z" fill="white"/>
</svg>
