<svg width="229" height="46" viewBox="0 0 229 46" fill="none" xmlns="http://www.w3.org/2000/svg">
<g filter="url(#filter0_d_360_2)">
<path d="M7.94209 19.8224C8.5424 13.0292 14.1823 7.70398 21.0524 7.70398C27.5481 7.70398 32.9444 12.4644 34.0208 18.7253C35.4991 17.8412 36.5439 16.2914 36.7465 14.4695L36.9508 12.6337C37.0109 12.0933 37.4628 11.6846 38.0003 11.6846C38.5379 11.6846 38.9897 12.0932 39.0498 12.6337L39.2539 14.4695C39.4566 16.2913 40.5015 17.841 41.9798 18.7251C43.0562 12.4644 48.4524 7.70398 54.9481 7.70398C61.8182 7.70398 67.4581 13.0291 68.0584 19.8224L75.6515 19.9265C75.0875 8.8516 66.034 0.0473747 54.9481 0.0473747C47.9555 0.0473747 41.7716 3.55038 38.0167 8.91649C34.265 3.52368 28.0656 0 21.0524 0C9.9507 0 0.887257 8.82939 0.34668 19.9266L7.94209 19.8224Z" fill="white"/>
<path d="M76 21L44.3571 20.5662C41.1508 20.3341 38.5637 17.8212 38.2042 14.5891L38 12.7533L37.7958 14.5891C37.4363 17.8212 34.8496 20.3341 31.6432 20.5662L0 21L31.6433 21.4339C34.8496 21.6659 37.4363 24.1788 37.7958 27.4109L38 29.2467L38.2042 27.4109C38.5637 24.1788 41.1504 21.6659 44.3567 21.4338L76 21Z" fill="white"/>
<path d="M68.0627 22.1776C67.4846 28.9935 61.8343 34.3434 54.9482 34.3434C48.4377 34.3434 43.0318 29.561 41.9728 23.279C40.4983 24.1638 39.4564 25.7115 39.2541 27.5304L39.0499 29.3662C38.9898 29.9067 38.538 30.3153 38.0005 30.3153C37.4629 30.3153 37.011 29.9068 36.9509 29.3663L36.7467 27.5305C36.5444 25.7115 35.5025 24.1638 34.028 23.279C32.969 29.561 27.5631 34.3434 21.0526 34.3434C14.1665 34.3434 8.51624 28.9935 7.93807 22.1776L0.349121 22.0735C0.913153 33.1484 9.96665 41.9527 21.0526 41.9527C28.0452 41.9527 34.229 38.4497 37.984 33.0835C41.7356 38.4764 47.9351 42 54.9482 42C66.05 42 75.1134 33.1707 75.654 22.0735L68.0627 22.1776Z" fill="white"/>
<path d="M132.064 9.664L125.824 32H120.544L116.352 16.096L111.968 32L106.72 32.032L100.704 9.664H105.504L109.44 27.008L113.984 9.664H118.976L123.264 26.912L127.232 9.664H132.064ZM139.469 13.28V18.88H146.989V22.432H139.469V28.352H147.949V32H134.989V9.632H147.949V13.28H139.469ZM159.733 32.224C158.175 32.224 156.767 31.9573 155.509 31.424C154.271 30.8907 153.29 30.1227 152.565 29.12C151.839 28.1173 151.466 26.9333 151.445 25.568H156.245C156.309 26.4853 156.629 27.2107 157.205 27.744C157.802 28.2773 158.613 28.544 159.637 28.544C160.682 28.544 161.503 28.2987 162.101 27.808C162.698 27.296 162.997 26.6347 162.997 25.824C162.997 25.1627 162.794 24.6187 162.389 24.192C161.983 23.7653 161.471 23.4347 160.853 23.2C160.255 22.944 159.423 22.6667 158.357 22.368C156.906 21.9413 155.722 21.5253 154.805 21.12C153.909 20.6933 153.13 20.064 152.469 19.232C151.829 18.3787 151.509 17.248 151.509 15.84C151.509 14.5173 151.839 13.3653 152.501 12.384C153.162 11.4027 154.09 10.656 155.285 10.144C156.479 9.61067 157.845 9.344 159.381 9.344C161.685 9.344 163.551 9.90933 164.981 11.04C166.431 12.1493 167.231 13.7067 167.381 15.712H162.453C162.41 14.944 162.079 14.3147 161.461 13.824C160.863 13.312 160.063 13.056 159.061 13.056C158.186 13.056 157.482 13.28 156.949 13.728C156.437 14.176 156.181 14.8267 156.181 15.68C156.181 16.2773 156.373 16.7787 156.757 17.184C157.162 17.568 157.653 17.888 158.229 18.144C158.826 18.3787 159.658 18.656 160.725 18.976C162.175 19.4027 163.359 19.8293 164.277 20.256C165.194 20.6827 165.983 21.3227 166.645 22.176C167.306 23.0293 167.637 24.1493 167.637 25.536C167.637 26.7307 167.327 27.84 166.708 28.864C166.09 29.888 165.183 30.7093 163.989 31.328C162.794 31.9253 161.375 32.224 159.733 32.224ZM176.001 9.664V32H171.521V9.664H176.001ZM190.795 32.224C188.704 32.224 186.784 31.7333 185.035 30.752C183.285 29.7707 181.899 28.416 180.875 26.688C179.851 24.9387 179.339 22.9653 179.339 20.768C179.339 18.592 179.851 16.64 180.875 14.912C181.899 13.1627 183.285 11.7973 185.035 10.816C186.784 9.83467 188.704 9.344 190.795 9.344C192.907 9.344 194.827 9.83467 196.555 10.816C198.304 11.7973 199.68 13.1627 200.683 14.912C201.707 16.64 202.219 18.592 202.219 20.768C202.219 22.9653 201.707 24.9387 200.683 26.688C199.68 28.416 198.304 29.7707 196.555 30.752C194.805 31.7333 192.885 32.224 190.795 32.224ZM190.795 28.224C192.139 28.224 193.323 27.9253 194.347 27.328C195.371 26.7093 196.171 25.8347 196.747 24.704C197.323 23.5733 197.611 22.2613 197.611 20.768C197.611 19.2747 197.323 17.9733 196.747 16.864C196.171 15.7333 195.371 14.8693 194.347 14.272C193.323 13.6747 192.139 13.376 190.795 13.376C189.451 13.376 188.256 13.6747 187.211 14.272C186.187 14.8693 185.387 15.7333 184.811 16.864C184.235 17.9733 183.947 19.2747 183.947 20.768C183.947 22.2613 184.235 23.5733 184.811 24.704C185.387 25.8347 186.187 26.7093 187.211 27.328C188.256 27.9253 189.451 28.224 190.795 28.224ZM224.656 32H220.176L210.032 16.672V32H205.552V9.632H210.032L220.176 24.992V9.632H224.656V32Z" fill="white"/>
</g>
<defs>
<filter id="filter0_d_360_2" x="0" y="0" width="231" height="46" filterUnits="userSpaceOnUse" color-interpolation-filters="sRGB">
<feFlood flood-opacity="0" result="BackgroundImageFix"/>
<feColorMatrix in="SourceAlpha" type="matrix" values="0 0 0 0 0 0 0 0 0 0 0 0 0 0 0 0 0 0 127 0" result="hardAlpha"/>
<feOffset dx="2" dy="2"/>
<feGaussianBlur stdDeviation="1"/>
<feComposite in2="hardAlpha" operator="out"/>
<feColorMatrix type="matrix" values="0 0 0 0 0 0 0 0 0 0 0 0 0 0 0 0 0 0 0.25 0"/>
<feBlend mode="normal" in2="BackgroundImageFix" result="effect1_dropShadow_360_2"/>
<feBlend mode="normal" in="SourceGraphic" in2="effect1_dropShadow_360_2" result="shape"/>
</filter>
</defs>
</svg>
